<?xml version="1.0" encoding="utf-8"?>
<!-- Generator: Adobe Illustrator 27.5.0, SVG Export Plug-In . SVG Version: 6.00 Build 0)  -->
<svg version="1.2" baseProfile="tiny" id="Layer_1" xmlns="http://www.w3.org/2000/svg" xmlns:xlink="http://www.w3.org/1999/xlink"
	 x="0px" y="0px" viewBox="0 0 3874 512" overflow="visible" xml:space="preserve">
<g>
	<path fill="#F1F2F2" d="M199.2,341.2l-0.1,0.1L113.9,455C51.8,410.7,11.4,338,11.4,256S51.8,101.3,113.9,57l85.2,113.7l0.1,0.1
		c-27.5,18.3-45.6,49.7-45.6,85.2S171.7,322.9,199.2,341.2z"/>
	<path fill="#F1F2F2" d="M394.4,54.3c64.2,44.2,106.3,118,106.3,201.7s-42.1,157.6-106.3,201.7l-1.8-2.6L309,343.6
		c29.7-17.9,49.5-50.4,49.5-87.6s-19.8-69.7-49.5-87.6l83.6-111.5L394.4,54.3z"/>
</g>
<g>
	<path fill="#FF0000" d="M394.4,54.3l-1.8,2.6L309,168.4c-15.5-9.4-33.6-14.8-52.9-14.8c-20.9,0-40.5,6.4-56.8,17.2l-0.1-0.1
		L113.9,57c40-28.8,89.1-45.6,142.1-45.6C307.4,11.4,355,27.2,394.4,54.3z"/>
	<path fill="#FF0000" d="M392.5,455.1l1.8,2.6c-39.4,27.1-86.9,42.9-138.4,42.9c-53,0-102.1-16.8-142.1-45.6L199,341.3l0.1-0.1
		c16.3,10.8,35.8,17.2,56.8,17.2c19.3,0,37.4-5.3,52.9-14.8L392.5,455.1z"/>
</g>
<g>
	<path fill="#252F3C" d="M400.8,44.9C358.1,15.5,308,0,256,0c-53.8,0-105.3,16.5-148.7,47.7c-32.5,23.1-59.5,54-78,89.3
		C10.1,173.4,0,214.6,0,256s10.1,82.6,29.3,119c18.6,35.3,45.5,66.2,78,89.3C150.7,495.5,202.2,512,256,512
		c52,0,102.1-15.5,144.8-44.9C470.4,419.2,512,340.3,512,256S470.4,92.8,400.8,44.9z M378.1,57.2l-72.3,96.5
		c-15.4-7.5-32.4-11.5-49.7-11.5c-18.9,0-37.3,4.7-53.8,13.6l-72-96.1c37.5-24.2,80.7-36.9,125.9-36.9
		C299.4,22.8,341.4,34.6,378.1,57.2z M303,333.9c-14.1,8.6-30.3,13.1-47,13.1c-18,0-35.4-5.3-50.5-15.3
		C180.1,314.9,165,286.5,165,256s15.2-58.9,40.5-75.7c15.1-10,32.5-15.3,50.5-15.3c16.7,0,32.9,4.5,47,13.2
		c27.5,16.6,44,45.7,44,77.9S330.6,317.3,303,333.9z M22.8,256c0-71.5,33-139.1,88.9-183.1l71.6,95.6c-25.9,21.5-41,53.4-41,87.5
		s15.2,66,41,87.5l-71.6,95.6C55.8,395.1,22.8,327.5,22.8,256z M130.1,452.3l72-96.1c16.5,8.9,34.9,13.6,53.8,13.6
		c17.4,0,34.4-4,49.7-11.5l72.3,96.5c-36.6,22.6-78.6,34.5-122.1,34.5C210.9,489.2,167.6,476.5,130.1,452.3z M396.8,441.9
		l-71.7-95.6c28.1-21.4,44.6-54.3,44.6-90.3s-16.5-69-44.6-90.3l71.7-95.6c58.1,44.1,92.4,112.8,92.4,185.9S454.9,397.8,396.8,441.9
		z"/>
	<path fill="#252F3C" d="M110.2,178.4l-16.6-15.5C70,188.2,57,221.3,57,256c0,24,6.3,47.6,18.3,68.3L95,312.9
		C84.9,295.7,79.6,276,79.6,256C79.6,227,90.5,199.5,110.2,178.4z"/>
	<path fill="#252F3C" d="M418.5,162.9l-16.6,15.5c19.7,21.1,30.5,48.6,30.5,77.6c0,19.9-5.3,39.6-15.2,56.9l19.7,11.3
		c11.9-20.8,18.2-44.4,18.2-68.2C455.1,221.3,442.1,188.2,418.5,162.9z"/>
</g>
<g>
	<path fill="#FFFFFF" d="M649.4,161.9h60.4c27.5,0,47.5,3.9,59.9,11.7c12.4,7.8,18.6,20.3,18.6,37.4c0,11.6-2.7,21.1-8.2,28.5
		c-5.4,7.4-12.7,11.9-21.7,13.4v1.3c12.3,2.7,21.2,7.9,26.6,15.4c5.4,7.5,8.2,17.5,8.2,30c0,17.7-6.4,31.5-19.2,41.4
		c-12.8,9.9-30.1,14.9-52.1,14.9h-72.6V161.9z M690.5,238.7h23.9c11.1,0,19.2-1.7,24.2-5.2c5-3.4,7.5-9.2,7.5-17.1
		c0-7.4-2.7-12.8-8.2-16c-5.4-3.2-14-4.8-25.8-4.8h-21.6V238.7z M690.5,271.3v50.6h26.8c11.3,0,19.7-2.2,25.1-6.5
		c5.4-4.3,8.1-11,8.1-19.9c0-16.1-11.5-24.1-34.5-24.1H690.5z"/>
	<path fill="#FFFFFF" d="M1034.2,207.5v148.3h-40.6v-118h-53.7v118h-40.5V207.5H1034.2z"/>
	<path fill="#FFFFFF" d="M1211.3,281.4c0,24.1-6.4,43-19.1,56.7c-12.7,13.6-30.5,20.4-53.2,20.4c-14.2,0-26.8-3.1-37.7-9.4
		c-10.9-6.2-19.2-15.2-25.1-26.9c-5.8-11.7-8.8-25.3-8.8-40.9c0-24.2,6.3-43.1,19-56.5c12.6-13.4,30.4-20.2,53.3-20.2
		c14.2,0,26.8,3.1,37.7,9.3c10.9,6.2,19.2,15.1,25.1,26.7C1208.4,252.3,1211.3,265.9,1211.3,281.4z M1108.8,281.4
		c0,14.7,2.4,25.8,7.2,33.3c4.8,7.5,12.7,11.3,23.6,11.3c10.8,0,18.6-3.7,23.3-11.2c4.7-7.5,7.1-18.6,7.1-33.4
		c0-14.7-2.4-25.7-7.2-33c-4.8-7.3-12.6-11-23.5-11c-10.8,0-18.6,3.6-23.4,10.9C1111.1,255.6,1108.8,266.7,1108.8,281.4z"/>
	<path fill="#FFFFFF" d="M1431.7,355.9h-37.8V239l-2.1,8.2c-4.8,18.7-9.1,32.8-12.9,42.3l-26.3,66.3h-28.8l-26.7-66.9
		c-3.8-9.7-7.9-23.4-12.2-41l-2.5-9v116.9h-37.7V207.5h55.7l25.5,63.3c2.7,6.8,5.1,14.6,7.4,23.5c2.3,8.8,3.8,16.4,4.6,22.7
		c2.9-13.3,5.2-22.8,6.8-28.6c1.6-5.8,3.4-11.1,5.4-16c1.9-4.9,10.7-26.5,26.4-64.9h55.2V355.9z"/>
	<path fill="#FFFFFF" d="M1609,281.4c0,24.1-6.4,43-19.1,56.7c-12.7,13.6-30.5,20.4-53.2,20.4c-14.2,0-26.8-3.1-37.7-9.4
		c-10.9-6.2-19.2-15.2-25.1-26.9c-5.8-11.7-8.8-25.3-8.8-40.9c0-24.2,6.3-43.1,19-56.5c12.6-13.4,30.4-20.2,53.3-20.2
		c14.2,0,26.8,3.1,37.7,9.3c10.9,6.2,19.2,15.1,25.1,26.7C1606.1,252.3,1609,265.9,1609,281.4z M1506.4,281.4
		c0,14.7,2.4,25.8,7.2,33.3c4.8,7.5,12.7,11.3,23.6,11.3c10.8,0,18.6-3.7,23.3-11.2c4.7-7.5,7.1-18.6,7.1-33.4
		c0-14.7-2.4-25.7-7.2-33c-4.8-7.3-12.6-11-23.5-11c-10.8,0-18.6,3.6-23.4,10.9C1508.8,255.6,1506.4,266.7,1506.4,281.4z"/>
	<path fill="#FFFFFF" d="M1863.3,326.3h21.8v82.8h-36.5v-53.2h-206.2V207.5h40.5v118h49.8v-118h40.5v118h49.8v-118h40.5V326.3z"/>
	<path fill="#FFFFFF" d="M1950.5,264.8h28.5c22.8,0,39.7,3.6,50.7,10.9c11,7.3,16.5,18.2,16.5,32.9c0,31.5-21.8,47.2-65.5,47.2H1910
		V207.5h40.5V264.8z M2005.7,309.2c0-5.7-2.3-9.9-6.9-12.5c-4.6-2.6-11.5-3.8-20.6-3.8h-27.7v35h28.3
		C1996.7,327.9,2005.7,321.6,2005.7,309.2z"/>
	<path fill="#FFFFFF" d="M2224.5,358.5v-29.9h-2.9c-16.5,0-30.9-2.9-43.3-8.7c-12.4-5.8-22.1-14.5-29.3-26.1
		c-7.1-11.6-10.7-24.5-10.7-38.6c0-13.7,3.2-26.1,9.5-37.1c6.3-11,15.5-19.6,27.4-25.9c11.9-6.2,26-9.4,42.2-9.4h7v-23.9h37V183h7
		c16.1,0,30.1,3.1,42.1,9.4c11.9,6.2,21.1,14.9,27.5,25.9s9.6,23.4,9.6,37.1c0,14.2-3.6,27-10.7,38.6c-7.1,11.6-16.9,20.3-29.3,26.1
		c-12.4,5.8-26.8,8.7-43.3,8.7h-2.9v29.9H2224.5z M2224.5,215.1h-5.4c-13,0-23.3,3.6-30.8,10.9c-7.5,7.3-11.3,16.9-11.3,29.1
		c0,12.7,4,22.9,11.9,30.5c8,7.6,19.2,11.4,33.7,11.4h1.9V215.1z M2261.5,296.9h1.9c14.2,0,25.4-3.7,33.5-11.2
		c8.1-7.5,12.1-17.7,12.1-30.7c0-12-3.8-21.7-11.3-29c-7.5-7.3-17.8-10.9-30.8-10.9h-5.4V296.9z"/>
	<path fill="#FFFFFF" d="M2462.5,358.5c-17.4,0-31.1-6.3-41-19h-2.1c1.4,12.4,2.1,19.5,2.1,21.5v60.1h-40.5V207.5h32.9l5.7,19.2h1.9
		c9.5-14.7,23.5-22,42.1-22c17.5,0,31.2,6.8,41.1,20.3c9.9,13.5,14.9,32.3,14.9,56.4c0,15.8-2.3,29.6-7,41.3
		c-4.6,11.7-11.3,20.6-19.8,26.7C2484.2,355.5,2474.1,358.5,2462.5,358.5z M2450.6,237.1c-10,0-17.3,3.1-21.9,9.2
		c-4.6,6.1-7,16.3-7.2,30.5v4.4c0,15.9,2.4,27.3,7.1,34.2c4.7,6.9,12.2,10.3,22.5,10.3c18.1,0,27.2-14.9,27.2-44.8
		c0-14.6-2.2-25.5-6.7-32.8C2467.1,240.8,2460.1,237.1,2450.6,237.1z"/>
	<path fill="#FFFFFF" d="M2592.2,207.5v58.6c0,6.2-1,21.3-3.1,45.4l68.5-104h48.7v148.3h-39.1v-59.2c0-10.5,0.9-25.4,2.7-44.6
		l-68.2,103.8H2553V207.5H2592.2z"/>
	<path fill="#FFFFFF" d="M2881.5,355.9h-40.5v-118h-37.3c-2.8,33.2-6.3,57.9-10.3,74.2c-4.1,16.3-9.5,28.1-16.3,35.4
		c-6.8,7.3-15.6,10.9-26.6,10.9c-9.4,0-17.1-1.4-23.1-4.2v-32.4c4.3,1.8,8.7,2.7,13,2.7c5,0,9.3-3.6,12.7-10.9
		c3.4-7.3,6.5-19.3,9.2-36.3c2.7-16.9,5-40.2,7-69.9h112.2V355.9z"/>
	<path fill="#FFFFFF" d="M3018.2,355.9l-7.8-20.2h-1.1c-6.8,8.6-13.8,14.5-21,17.8c-7.2,3.3-16.6,5-28.2,5
		c-14.2,0-25.5-4.1-33.6-12.2c-8.2-8.1-12.3-19.7-12.3-34.8c0-15.7,5.5-27.4,16.5-34.8c11-7.5,27.6-11.6,49.8-12.4l25.7-0.8V257
		c0-15-7.7-22.6-23.1-22.6c-11.9,0-25.8,3.6-41.8,10.7l-13.4-27.3c17.1-8.9,36-13.4,56.8-13.4c19.9,0,35.2,4.3,45.8,13
		c10.6,8.7,15.9,21.8,15.9,39.5v98.8H3018.2z M3006.3,287.1l-15.7,0.5c-11.8,0.4-20.5,2.5-26.3,6.4c-5.8,3.9-8.6,9.8-8.6,17.8
		c0,11.4,6.5,17.1,19.6,17.1c9.4,0,16.9-2.7,22.5-8.1c5.6-5.4,8.4-12.6,8.4-21.5V287.1z"/>
	<path fill="#FFFFFF" d="M3128.6,207.5v57.1h56.5v-57.1h40.5v148.3h-40.5v-61.2h-56.5v61.2h-40.5V207.5H3128.6z"/>
	<path fill="#FFFFFF" d="M3328.3,358.5c-46.2,0-69.3-25.3-69.3-76c0-25.2,6.3-44.5,18.8-57.8c12.6-13.3,30.6-20,54-20
		c17.2,0,32.6,3.4,46.2,10.1l-11.9,31.3c-6.4-2.6-12.3-4.7-17.8-6.3c-5.5-1.6-11-2.5-16.5-2.5c-21.1,0-31.6,14.9-31.6,44.8
		c0,29,10.5,43.5,31.6,43.5c7.8,0,15-1,21.6-3.1c6.6-2.1,13.3-5.3,19.9-9.8v34.6c-6.5,4.2-13.2,7-19.8,8.6
		C3346.9,357.7,3338.5,358.5,3328.3,358.5z"/>
	<path fill="#FFFFFF" d="M3474.9,358.5c-23.9,0-42.5-6.6-56-19.8c-13.4-13.2-20.2-31.8-20.2-56c0-24.9,6.2-44.1,18.6-57.7
		c12.4-13.6,29.6-20.4,51.5-20.4c21,0,37.3,6,49,17.9c11.7,11.9,17.5,28.4,17.5,49.5v19.6h-95.7c0.4,11.5,3.8,20.5,10.2,26.9
		c6.4,6.5,15.3,9.7,26.8,9.7c8.9,0,17.4-0.9,25.3-2.8s16.3-4.8,24.9-8.9V348c-7.1,3.5-14.6,6.2-22.7,7.9
		C3496.3,357.6,3486.5,358.5,3474.9,358.5z M3469.2,233.5c-8.6,0-15.3,2.7-20.2,8.2c-4.9,5.4-7.7,13.2-8.4,23.2h56.8
		c-0.2-10-2.8-17.7-7.8-23.2C3484.6,236.2,3477.8,233.5,3469.2,233.5z"/>
	<path fill="#FFFFFF" d="M3649.8,358.5c-17.4,0-31.1-6.3-41-19h-2.1c1.4,12.4,2.1,19.5,2.1,21.5v60.1h-40.5V207.5h32.9l5.7,19.2h1.9
		c9.5-14.7,23.5-22,42.1-22c17.5,0,31.2,6.8,41.1,20.3c9.9,13.5,14.9,32.3,14.9,56.4c0,15.8-2.3,29.6-7,41.3
		c-4.6,11.7-11.3,20.6-19.8,26.7C3671.4,355.5,3661.4,358.5,3649.8,358.5z M3637.8,237.1c-10,0-17.3,3.1-21.9,9.2
		c-4.6,6.1-7,16.3-7.2,30.5v4.4c0,15.9,2.4,27.3,7.1,34.2c4.7,6.9,12.2,10.3,22.5,10.3c18.1,0,27.2-14.9,27.2-44.8
		c0-14.6-2.2-25.5-6.7-32.8C3654.4,240.8,3647.4,237.1,3637.8,237.1z"/>
	<path fill="#FFFFFF" d="M3719,207.5h44.3l28,83.5c2.4,7.3,4,15.8,4.9,25.7h0.8c1-9.1,2.9-17.7,5.7-25.7l27.5-83.5h43.4l-62.8,167.3
		c-5.8,15.5-14,27.1-24.6,34.8c-10.7,7.7-23.1,11.5-37.4,11.5c-7,0-13.8-0.8-20.6-2.3v-32.1c4.9,1.1,10.2,1.7,15.9,1.7
		c7.2,0,13.4-2.2,18.8-6.6c5.4-4.4,9.5-11,12.5-19.8l2.4-7.3L3719,207.5z"/>
</g>
</svg>
