<?xml version="1.0" encoding="utf-8"?>
<!-- Generator: Adobe Illustrator 27.5.0, SVG Export Plug-In . SVG Version: 6.00 Build 0)  -->
<svg version="1.2" baseProfile="tiny" id="Layer_1" xmlns="http://www.w3.org/2000/svg" xmlns:xlink="http://www.w3.org/1999/xlink"
	 x="0px" y="0px" viewBox="0 0 4840 512" overflow="visible" xml:space="preserve">
<g>
	<path fill="#F1F2F2" d="M199.2,341.2l-0.1,0.1L113.9,455C51.8,410.7,11.4,338,11.4,256S51.8,101.3,113.9,57l85.2,113.7l0.1,0.1
		c-27.5,18.3-45.6,49.7-45.6,85.2S171.7,322.9,199.2,341.2z"/>
	<path fill="#F1F2F2" d="M394.4,54.3c64.2,44.2,106.3,118,106.3,201.7s-42.1,157.6-106.3,201.7l-1.8-2.6L309,343.6
		c29.7-17.9,49.5-50.4,49.5-87.6s-19.8-69.7-49.5-87.6l83.6-111.5L394.4,54.3z"/>
</g>
<g>
	<path fill="#FF0000" d="M394.4,54.3l-1.8,2.6L309,168.4c-15.5-9.4-33.6-14.8-52.9-14.8c-20.9,0-40.5,6.4-56.8,17.2l-0.1-0.1
		L113.9,57c40-28.8,89.1-45.6,142.1-45.6C307.4,11.4,355,27.2,394.4,54.3z"/>
	<path fill="#FF0000" d="M392.5,455.1l1.8,2.6c-39.4,27.1-86.9,42.9-138.4,42.9c-53,0-102.1-16.8-142.1-45.6L199,341.3l0.1-0.1
		c16.3,10.8,35.8,17.2,56.8,17.2c19.3,0,37.4-5.3,52.9-14.8L392.5,455.1z"/>
</g>
<g>
	<path fill="#252F3C" d="M400.8,44.9C358.1,15.5,308,0,256,0c-53.8,0-105.3,16.5-148.7,47.7c-32.5,23.1-59.5,54-78,89.3
		C10.1,173.4,0,214.6,0,256s10.1,82.6,29.3,119c18.6,35.3,45.5,66.2,78,89.3C150.7,495.5,202.2,512,256,512
		c52,0,102.1-15.5,144.8-44.9C470.4,419.2,512,340.3,512,256S470.4,92.8,400.8,44.9z M378.1,57.2l-72.3,96.5
		c-15.4-7.5-32.4-11.5-49.7-11.5c-18.9,0-37.3,4.7-53.8,13.6l-72-96.1c37.5-24.2,80.7-36.9,125.9-36.9
		C299.4,22.8,341.4,34.6,378.1,57.2z M303,333.9c-14.1,8.6-30.3,13.1-47,13.1c-18,0-35.4-5.3-50.5-15.3
		C180.1,314.9,165,286.5,165,256s15.2-58.9,40.5-75.7c15.1-10,32.5-15.3,50.5-15.3c16.7,0,32.9,4.5,47,13.2
		c27.5,16.6,44,45.7,44,77.9S330.6,317.3,303,333.9z M22.8,256c0-71.5,33-139.1,88.9-183.1l71.6,95.6c-25.9,21.5-41,53.4-41,87.5
		s15.2,66,41,87.5l-71.6,95.6C55.8,395.1,22.8,327.5,22.8,256z M130.1,452.3l72-96.1c16.5,8.9,34.9,13.6,53.8,13.6
		c17.4,0,34.4-4,49.7-11.5l72.3,96.5c-36.6,22.6-78.6,34.5-122.1,34.5C210.9,489.2,167.6,476.5,130.1,452.3z M396.8,441.9
		l-71.7-95.6c28.1-21.4,44.6-54.3,44.6-90.3s-16.5-69-44.6-90.3l71.7-95.6c58.1,44.1,92.4,112.8,92.4,185.9S454.9,397.8,396.8,441.9
		z"/>
	<path fill="#252F3C" d="M110.2,178.4l-16.6-15.5C70,188.2,57,221.3,57,256c0,24,6.3,47.6,18.3,68.3L95,312.9
		C84.9,295.7,79.6,276,79.6,256C79.6,227,90.5,199.5,110.2,178.4z"/>
	<path fill="#252F3C" d="M418.5,162.9l-16.6,15.5c19.7,21.1,30.5,48.6,30.5,77.6c0,19.9-5.3,39.6-15.2,56.9l19.7,11.3
		c11.9-20.8,18.2-44.4,18.2-68.2C455.1,221.3,442.1,188.2,418.5,162.9z"/>
</g>
<g>
	<path fill="#FFFFFF" d="M664.3,127.2h78.2c35.6,0,61.5,5.1,77.6,15.2c16.1,10.1,24.1,26.3,24.1,48.4c0,15-3.5,27.3-10.6,36.9
		c-7,9.6-16.4,15.4-28.1,17.4v1.7c15.9,3.6,27.4,10.2,34.5,19.9c7,9.7,10.6,22.7,10.6,38.8c0,22.9-8.3,40.8-24.8,53.6
		c-16.6,12.8-39,19.2-67.4,19.2h-94V127.2z M717.5,226.7h30.9c14.4,0,24.9-2.2,31.4-6.7c6.5-4.5,9.7-11.9,9.7-22.2
		c0-9.6-3.5-16.5-10.6-20.7c-7-4.2-18.2-6.3-33.4-6.3h-28V226.7z M717.5,269v65.5h34.7c14.7,0,25.5-2.8,32.5-8.4
		c7-5.6,10.5-14.2,10.5-25.8c0-20.8-14.9-31.3-44.7-31.3H717.5z"/>
	<path fill="#FFFFFF" d="M1162.6,186.4v192.1H1110V225.7h-69.6v152.8H988V186.4H1162.6z"/>
	<path fill="#FFFFFF" d="M1392,282.1c0,31.3-8.2,55.7-24.7,73.4c-16.5,17.6-39.5,26.5-68.9,26.5c-18.4,0-34.7-4-48.8-12.1
		s-24.9-19.7-32.5-34.8c-7.6-15.1-11.3-32.8-11.3-52.9c0-31.4,8.2-55.8,24.6-73.2c16.4-17.4,39.4-26.1,69.1-26.1
		c18.4,0,34.7,4,48.8,12c14.1,8,24.9,19.5,32.5,34.5C1388.2,244.3,1392,261.9,1392,282.1z M1259.2,282.1c0,19,3.1,33.4,9.4,43.1
		c6.2,9.7,16.4,14.6,30.5,14.6c14,0,24-4.8,30.2-14.5c6.1-9.7,9.2-24.1,9.2-43.2c0-19-3.1-33.3-9.3-42.8
		c-6.2-9.5-16.3-14.3-30.4-14.3c-14,0-24.1,4.7-30.2,14.2C1262.3,248.6,1259.2,262.9,1259.2,282.1z"/>
	<path fill="#FFFFFF" d="M1677.4,378.5h-49V227.1l-2.7,10.7c-6.2,24.2-11.7,42.4-16.7,54.8l-34,85.9h-37.3l-34.5-86.6
		c-4.9-12.6-10.2-30.3-15.8-53.1l-3.3-11.7v151.4h-48.8V186.4h72.2l33,82c3.4,8.8,6.6,19,9.5,30.4c2.9,11.5,4.9,21.3,5.9,29.4
		c3.8-17.2,6.7-29.5,8.9-37c2.1-7.5,4.4-14.4,7-20.7c2.5-6.3,13.9-34.3,34.2-84h71.5V378.5z"/>
	<path fill="#FFFFFF" d="M1907,282.1c0,31.3-8.2,55.7-24.7,73.4c-16.5,17.6-39.5,26.5-68.9,26.5c-18.4,0-34.7-4-48.8-12.1
		s-24.9-19.7-32.5-34.8c-7.6-15.1-11.3-32.8-11.3-52.9c0-31.4,8.2-55.8,24.6-73.2c16.4-17.4,39.4-26.1,69.1-26.1
		c18.4,0,34.7,4,48.8,12c14.1,8,24.9,19.5,32.5,34.5C1903.2,244.3,1907,261.9,1907,282.1z M1774.2,282.1c0,19,3.1,33.4,9.4,43.1
		c6.2,9.7,16.4,14.6,30.5,14.6c14,0,24-4.8,30.2-14.5c6.1-9.7,9.2-24.1,9.2-43.2c0-19-3.1-33.3-9.3-42.8
		c-6.2-9.5-16.3-14.3-30.4-14.3c-14,0-24.1,4.7-30.2,14.2C1777.3,248.6,1774.2,262.9,1774.2,282.1z"/>
	<path fill="#FFFFFF" d="M2236.4,340.2h28.2v107.2h-47.3v-68.9h-267V186.4h52.4v152.8h64.4V186.4h52.4v152.8h64.4V186.4h52.4V340.2z
		"/>
	<path fill="#FFFFFF" d="M2349.3,260.6h36.9c29.6,0,51.4,4.7,65.6,14.1c14.2,9.4,21.3,23.6,21.3,42.6c0,40.8-28.3,61.2-84.9,61.2
		h-91.4V186.4h52.4V260.6z M2420.8,318c0-7.4-3-12.8-8.9-16.2c-6-3.3-14.8-5-26.6-5h-35.9v45.4h36.6
		C2409.2,342.2,2420.8,334.1,2420.8,318z"/>
	<path fill="#FFFFFF" d="M2704.2,381.9v-38.7h-3.8c-21.3,0-40-3.8-56-11.3c-16-7.5-28.7-18.8-37.9-33.8c-9.2-15-13.8-31.7-13.8-50
		c0-17.8,4.1-33.8,12.3-48c8.2-14.3,20-25.4,35.5-33.5c15.5-8.1,33.7-12.1,54.6-12.1h9.1v-30.9h47.9v30.9h9.1c20.8,0,39,4,54.5,12.1
		c15.5,8.1,27.3,19.2,35.6,33.5c8.2,14.3,12.4,30.3,12.4,48c0,18.3-4.6,35-13.8,50c-9.2,15-21.9,26.3-37.9,33.8
		c-16,7.5-34.7,11.3-56,11.3h-3.8v38.7H2704.2z M2704.2,196.1h-7c-16.8,0-30.1,4.7-39.9,14.1c-9.7,9.4-14.6,21.9-14.6,37.6
		c0,16.5,5.2,29.7,15.5,39.5c10.3,9.9,24.9,14.8,43.6,14.8h2.4V196.1z M2752.1,302.2h2.4c18.4,0,32.9-4.8,43.4-14.5
		c10.5-9.7,15.7-22.9,15.7-39.8c0-15.6-4.9-28.1-14.6-37.5c-9.7-9.5-23-14.2-39.9-14.2h-7V302.2z"/>
	<path fill="#FFFFFF" d="M3012.4,381.9c-22.6,0-40.3-8.2-53.1-24.6h-2.7c1.8,16,2.7,25.3,2.7,27.8V463h-52.4V186.4h42.6l7.4,24.9
		h2.4c12.3-19,30.4-28.5,54.5-28.5c22.7,0,40.4,8.8,53.3,26.3c12.8,17.5,19.2,41.9,19.2,73c0,20.5-3,38.3-9,53.4
		s-14.6,26.6-25.7,34.5C3040.5,378,3027.4,381.9,3012.4,381.9z M2997,224.7c-12.9,0-22.4,4-28.4,11.9c-6,8-9.1,21.1-9.3,39.4v5.7
		c0,20.6,3.1,35.4,9.2,44.3c6.1,8.9,15.8,13.4,29.1,13.4c23.5,0,35.2-19.4,35.2-58.1c0-18.9-2.9-33.1-8.7-42.5
		C3018.4,229.4,3009.3,224.7,2997,224.7z"/>
	<path fill="#FFFFFF" d="M3180.3,186.4v76c0,8-1.3,27.6-4,58.8l88.7-134.7h63.1v192.1h-50.7v-76.6c0-13.6,1.1-32.9,3.4-57.7
		l-88.3,134.4h-62.9V186.4H3180.3z"/>
	<path fill="#FFFFFF" d="M3555.1,378.5h-52.4V225.7h-48.3c-3.7,43-8.1,75-13.4,96.1c-5.3,21.1-12.3,36.4-21.1,45.9
		s-20.2,14.2-34.5,14.2c-12.1,0-22.1-1.8-29.9-5.5v-41.9c5.6,2.3,11.2,3.4,16.8,3.4c6.5,0,12-4.7,16.4-14.1
		c4.4-9.4,8.4-25.1,11.9-47c3.5-21.9,6.5-52.1,9-90.5h145.4V378.5z"/>
	<path fill="#FFFFFF" d="M3732.1,378.5l-10.1-26.1h-1.4c-8.8,11.1-17.9,18.8-27.2,23.1c-9.3,4.3-21.5,6.4-36.5,6.4
		c-18.4,0-33-5.3-43.6-15.8c-10.6-10.5-15.9-25.5-15.9-45c0-20.4,7.1-35.4,21.4-45.1c14.3-9.7,35.8-15,64.5-16.1l33.3-1v-8.4
		c0-19.5-10-29.2-29.9-29.2c-15.4,0-33.4,4.6-54.1,13.9l-17.4-35.4c22.1-11.6,46.6-17.4,73.5-17.4c25.8,0,45.5,5.6,59.3,16.8
		c13.7,11.2,20.6,28.3,20.6,51.2v128H3732.1z M3716.6,289.5l-20.3,0.7c-15.2,0.5-26.6,3.2-34,8.2c-7.4,5-11.2,12.7-11.2,23
		c0,14.8,8.5,22.2,25.4,22.2c12.1,0,21.9-3.5,29.1-10.5c7.3-7,10.9-16.3,10.9-27.8V289.5z"/>
	<path fill="#FFFFFF" d="M3875.1,186.4v73.9h73.2v-73.9h52.4v192.1h-52.4v-79.2h-73.2v79.2h-52.4V186.4H3875.1z"/>
	<path fill="#FFFFFF" d="M4133.7,381.9c-59.8,0-89.7-32.8-89.7-98.5c0-32.6,8.1-57.6,24.4-74.8c16.3-17.2,39.6-25.9,69.9-25.9
		c22.2,0,42.2,4.4,59.8,13.1l-15.5,40.6c-8.2-3.3-15.9-6-23-8.2c-7.1-2.1-14.2-3.2-21.3-3.2c-27.3,0-40.9,19.4-40.9,58.1
		c0,37.6,13.6,56.4,40.9,56.4c10.1,0,19.4-1.3,28-4c8.6-2.7,17.2-6.9,25.8-12.6v44.8c-8.5,5.4-17,9.1-25.7,11.2
		C4157.8,380.9,4146.9,381.9,4133.7,381.9z"/>
	<path fill="#FFFFFF" d="M4323.6,381.9c-30.9,0-55.1-8.5-72.5-25.6c-17.4-17.1-26.1-41.2-26.1-72.5c0-32.2,8-57.1,24.1-74.7
		c16.1-17.6,38.3-26.4,66.8-26.4c27.2,0,48.3,7.7,63.4,23.2c15.1,15.5,22.7,36.8,22.7,64.1v25.4H4278c0.6,14.9,5,26.5,13.2,34.9
		c8.2,8.4,19.8,12.5,34.7,12.5c11.6,0,22.5-1.2,32.8-3.6c10.3-2.4,21.1-6.2,32.3-11.5v40.6c-9.2,4.6-19,8-29.4,10.2
		C4351.3,380.8,4338.6,381.9,4323.6,381.9z M4316.2,220c-11.1,0-19.8,3.5-26.1,10.6c-6.3,7-9.9,17-10.8,30h73.5
		c-0.2-12.9-3.6-22.9-10.1-30C4336.1,223.6,4327.3,220,4316.2,220z"/>
	<path fill="#FFFFFF" d="M4550.1,381.9c-22.6,0-40.3-8.2-53.1-24.6h-2.7c1.8,16,2.7,25.3,2.7,27.8V463h-52.4V186.4h42.6l7.4,24.9
		h2.4c12.3-19,30.4-28.5,54.5-28.5c22.7,0,40.4,8.8,53.3,26.3c12.8,17.5,19.2,41.9,19.2,73c0,20.5-3,38.3-9,53.4
		s-14.6,26.6-25.7,34.5C4578.1,378,4565.1,381.9,4550.1,381.9z M4534.6,224.7c-12.9,0-22.4,4-28.4,11.9c-6,8-9.1,21.1-9.3,39.4v5.7
		c0,20.6,3.1,35.4,9.2,44.3c6.1,8.9,15.8,13.4,29.1,13.4c23.5,0,35.2-19.4,35.2-58.1c0-18.9-2.9-33.1-8.7-42.5
		C4556,229.4,4547,224.7,4534.6,224.7z"/>
	<path fill="#FFFFFF" d="M4639.8,186.4h57.4l36.3,108.1c3.1,9.4,5.2,20.5,6.4,33.3h1c1.3-11.8,3.7-22.9,7.4-33.3l35.6-108.1h56.2
		L4758.7,403c-7.4,20-18.1,35.1-31.9,45c-13.8,10-29.9,15-48.4,15c-9.1,0-17.9-1-26.6-2.9v-41.6c6.3,1.5,13.2,2.2,20.6,2.2
		c9.3,0,17.4-2.8,24.3-8.5c6.9-5.7,12.3-14.2,16.2-25.7l3.1-9.5L4639.8,186.4z"/>
</g>
</svg>
