<?xml version="1.0" encoding="utf-8"?>
<!-- Generator: Adobe Illustrator 27.5.0, SVG Export Plug-In . SVG Version: 6.00 Build 0)  -->
<svg version="1.2" baseProfile="tiny" id="Layer_1" xmlns="http://www.w3.org/2000/svg" xmlns:xlink="http://www.w3.org/1999/xlink"
	 x="0px" y="0px" viewBox="0 0 4383 512" overflow="visible" xml:space="preserve">
<g>
	<path fill="#F1F2F2" d="M199.2,341.2l-0.1,0.1L113.9,455C51.8,410.7,11.4,338,11.4,256S51.8,101.3,113.9,57l85.2,113.7l0.1,0.1
		c-27.5,18.3-45.6,49.7-45.6,85.2S171.7,322.9,199.2,341.2z"/>
	<path fill="#F1F2F2" d="M394.4,54.3c64.2,44.2,106.3,118,106.3,201.7s-42.1,157.6-106.3,201.7l-1.8-2.6L309,343.6
		c29.7-17.9,49.5-50.4,49.5-87.6s-19.8-69.7-49.5-87.6l83.6-111.5L394.4,54.3z"/>
</g>
<g>
	<path fill="#FF0000" d="M394.4,54.3l-1.8,2.6L309,168.4c-15.5-9.4-33.6-14.8-52.9-14.8c-20.9,0-40.5,6.4-56.8,17.2l-0.1-0.1
		L113.9,57c40-28.8,89.1-45.6,142.1-45.6C307.4,11.4,355,27.2,394.4,54.3z"/>
	<path fill="#FF0000" d="M392.5,455.1l1.8,2.6c-39.4,27.1-86.9,42.9-138.4,42.9c-53,0-102.1-16.8-142.1-45.6L199,341.3l0.1-0.1
		c16.3,10.8,35.8,17.2,56.8,17.2c19.3,0,37.4-5.3,52.9-14.8L392.5,455.1z"/>
</g>
<g>
	<path fill="#252F3C" d="M400.8,44.9C358.1,15.5,308,0,256,0c-53.8,0-105.3,16.5-148.7,47.7c-32.5,23.1-59.5,54-78,89.3
		C10.1,173.4,0,214.6,0,256s10.1,82.6,29.3,119c18.6,35.3,45.5,66.2,78,89.3C150.7,495.5,202.2,512,256,512
		c52,0,102.1-15.5,144.8-44.9C470.4,419.2,512,340.3,512,256S470.4,92.8,400.8,44.9z M378.1,57.2l-72.3,96.5
		c-15.4-7.5-32.4-11.5-49.7-11.5c-18.9,0-37.3,4.7-53.8,13.6l-72-96.1c37.5-24.2,80.7-36.9,125.9-36.9
		C299.4,22.8,341.4,34.6,378.1,57.2z M303,333.9c-14.1,8.6-30.3,13.1-47,13.1c-18,0-35.4-5.3-50.5-15.3
		C180.1,314.9,165,286.5,165,256s15.2-58.9,40.5-75.7c15.1-10,32.5-15.3,50.5-15.3c16.7,0,32.9,4.5,47,13.2
		c27.5,16.6,44,45.7,44,77.9S330.6,317.3,303,333.9z M22.8,256c0-71.5,33-139.1,88.9-183.1l71.6,95.6c-25.9,21.5-41,53.4-41,87.5
		s15.2,66,41,87.5l-71.6,95.6C55.8,395.1,22.8,327.5,22.8,256z M130.1,452.3l72-96.1c16.5,8.9,34.9,13.6,53.8,13.6
		c17.4,0,34.4-4,49.7-11.5l72.3,96.5c-36.6,22.6-78.6,34.5-122.1,34.5C210.9,489.2,167.6,476.5,130.1,452.3z M396.8,441.9
		l-71.7-95.6c28.1-21.4,44.6-54.3,44.6-90.3s-16.5-69-44.6-90.3l71.7-95.6c58.1,44.1,92.4,112.8,92.4,185.9S454.9,397.8,396.8,441.9
		z"/>
	<path fill="#252F3C" d="M110.2,178.4l-16.6-15.5C70,188.2,57,221.3,57,256c0,24,6.3,47.6,18.3,68.3L95,312.9
		C84.9,295.7,79.6,276,79.6,256C79.6,227,90.5,199.5,110.2,178.4z"/>
	<path fill="#252F3C" d="M418.5,162.9l-16.6,15.5c19.7,21.1,30.5,48.6,30.5,77.6c0,19.9-5.3,39.6-15.2,56.9l19.7,11.3
		c11.9-20.8,18.2-44.4,18.2-68.2C455.1,221.3,442.1,188.2,418.5,162.9z"/>
</g>
<g>
	<path fill="#252F3C" d="M629.4,150.3h70.2c32,0,55.2,4.6,69.7,13.7c14.5,9.1,21.7,23.6,21.7,43.4c0,13.5-3.2,24.5-9.5,33.2
		s-14.7,13.8-25.2,15.6v1.5c14.3,3.2,24.6,9.2,30.9,17.9c6.3,8.7,9.5,20.4,9.5,34.9c0,20.6-7.4,36.6-22.3,48.1
		c-14.9,11.5-35.1,17.3-60.6,17.3h-84.4V150.3z M677.2,239.6H705c13,0,22.3-2,28.2-6c5.8-4,8.7-10.6,8.7-19.9
		c0-8.6-3.2-14.8-9.5-18.6c-6.3-3.8-16.3-5.6-30-5.6h-25.2V239.6z M677.2,277.6v58.8h31.2c13.2,0,22.9-2.5,29.2-7.6
		c6.3-5,9.4-12.8,9.4-23.1c0-18.7-13.4-28.1-40.1-28.1H677.2z"/>
	<path fill="#252F3C" d="M1076.9,203.4v172.5h-47.2V238.7h-62.5v137.2h-47.1V203.4H1076.9z"/>
	<path fill="#252F3C" d="M1282.8,289.3c0,28.1-7.4,50-22.2,65.9c-14.8,15.8-35.4,23.8-61.9,23.8c-16.6,0-31.2-3.6-43.8-10.9
		s-22.4-17.7-29.2-31.2s-10.2-29.4-10.2-47.5c0-28.2,7.4-50.1,22.1-65.7c14.7-15.6,35.4-23.5,62-23.5c16.6,0,31.2,3.6,43.8,10.8
		c12.7,7.2,22.4,17.5,29.2,31C1279.4,255.4,1282.8,271.2,1282.8,289.3z M1163.6,289.3c0,17.1,2.8,30,8.4,38.7
		c5.6,8.7,14.7,13.1,27.4,13.1c12.5,0,21.6-4.3,27.1-13c5.5-8.7,8.3-21.6,8.3-38.8c0-17.1-2.8-29.9-8.3-38.4
		c-5.6-8.5-14.7-12.8-27.3-12.8c-12.6,0-21.6,4.2-27.2,12.7S1163.6,272.2,1163.6,289.3z"/>
	<path fill="#252F3C" d="M1539.1,375.9h-44V240l-2.5,9.6c-5.6,21.7-10.5,38.1-15,49.2l-30.6,77.1h-33.5l-31-77.8
		c-4.4-11.3-9.2-27.2-14.2-47.7l-2.9-10.5v135.9h-43.8V203.4h64.8l29.6,73.6c3.1,7.9,5.9,17,8.6,27.3c2.6,10.3,4.4,19.1,5.3,26.4
		c3.4-15.4,6-26.5,7.9-33.3c1.9-6.7,4-12.9,6.2-18.6c2.3-5.7,12.5-30.8,30.7-75.5h64.2V375.9z"/>
	<path fill="#252F3C" d="M1745.3,289.3c0,28.1-7.4,50-22.2,65.9c-14.8,15.8-35.4,23.8-61.9,23.8c-16.6,0-31.2-3.6-43.8-10.9
		s-22.4-17.7-29.2-31.2s-10.2-29.4-10.2-47.5c0-28.2,7.4-50.1,22.1-65.7c14.7-15.6,35.4-23.5,62-23.5c16.6,0,31.2,3.6,43.8,10.8
		c12.7,7.2,22.4,17.5,29.2,31C1741.9,255.4,1745.3,271.2,1745.3,289.3z M1626,289.3c0,17.1,2.8,30,8.4,38.7
		c5.6,8.7,14.7,13.1,27.4,13.1c12.5,0,21.6-4.3,27.1-13c5.5-8.7,8.3-21.6,8.3-38.8c0-17.1-2.8-29.9-8.3-38.4
		c-5.6-8.5-14.7-12.8-27.3-12.8c-12.6,0-21.6,4.2-27.2,12.7S1626,272.2,1626,289.3z"/>
	<path fill="#252F3C" d="M2041.1,341.5h25.3v96.3h-42.4v-61.9h-239.8V203.4h47.1v137.2h57.9V203.4h47.1v137.2h57.9V203.4h47.1V341.5
		z"/>
	<path fill="#252F3C" d="M2142.4,270h33.2c26.5,0,46.2,4.2,58.9,12.7c12.8,8.4,19.1,21.2,19.1,38.3c0,36.6-25.4,54.9-76.2,54.9
		h-82.1V203.4h47.1V270z M2206.6,321.6c0-6.7-2.7-11.5-8-14.5c-5.3-3-13.3-4.5-23.9-4.5h-32.2v40.7h32.9
		C2196.2,343.3,2206.6,336.1,2206.6,321.6z"/>
	<path fill="#252F3C" d="M2461,379v-34.7h-3.4c-19.1,0-35.9-3.4-50.3-10.1c-14.4-6.7-25.7-16.8-34-30.3
		c-8.3-13.5-12.4-28.4-12.4-44.9c0-15.9,3.7-30.3,11-43.1c7.4-12.8,18-22.8,31.9-30.1s30.2-10.9,49.1-10.9h8.2v-27.8h43v27.8h8.2
		c18.7,0,35,3.6,48.9,10.9s24.5,17.3,31.9,30.1s11.1,27.2,11.1,43.1c0,16.5-4.1,31.4-12.4,44.9c-8.3,13.5-19.6,23.6-34,30.3
		c-14.4,6.7-31.2,10.1-50.3,10.1h-3.4V379H2461z M2461,212.2h-6.3c-15.1,0-27.1,4.2-35.8,12.7c-8.7,8.4-13.1,19.7-13.1,33.8
		c0,14.8,4.6,26.6,13.9,35.5c9.3,8.8,22.3,13.3,39.2,13.3h2.2V212.2z M2504.1,307.4h2.2c16.6,0,29.5-4.3,39-13
		c9.4-8.7,14.1-20.6,14.1-35.7c0-14-4.4-25.2-13.1-33.7c-8.7-8.5-20.7-12.7-35.8-12.7h-6.3V307.4z"/>
	<path fill="#252F3C" d="M2737.9,379c-20.3,0-36.2-7.4-47.7-22.1h-2.5c1.6,14.4,2.5,22.7,2.5,25v69.9h-47.1V203.4h38.3l6.6,22.4h2.2
		c11-17.1,27.3-25.6,48.9-25.6c20.4,0,36.3,7.9,47.8,23.6c11.5,15.7,17.3,37.6,17.3,65.6c0,18.4-2.7,34.4-8.1,48s-13.1,23.9-23.1,31
		C2763.1,375.4,2751.3,379,2737.9,379z M2724,237.8c-11.6,0-20.1,3.6-25.5,10.7c-5.3,7.2-8.1,19-8.3,35.4v5.1
		c0,18.5,2.8,31.8,8.3,39.8c5.5,8,14.2,12,26.2,12c21.1,0,31.6-17.4,31.6-52.2c0-17-2.6-29.7-7.8-38.2
		C2743.2,242,2735.1,237.8,2724,237.8z"/>
	<path fill="#252F3C" d="M2888.6,203.4v68.2c0,7.2-1.2,24.8-3.5,52.8l79.6-121h56.6v172.5h-45.5v-68.8c0-12.2,1-29.5,3.1-51.8
		l-79.3,120.7h-56.5V203.4H2888.6z"/>
	<path fill="#252F3C" d="M3225.1,375.9h-47.1V238.7h-43.4c-3.3,38.6-7.3,67.4-12,86.3c-4.7,19-11,32.7-18.9,41.2
		s-18.2,12.7-30.9,12.7c-10.9,0-19.9-1.6-26.8-4.9v-37.6c5,2.1,10.1,3.1,15.1,3.1c5.9,0,10.8-4.2,14.7-12.7
		c4-8.4,7.5-22.5,10.6-42.2c3.1-19.7,5.8-46.8,8.1-81.2h130.5V375.9z"/>
	<path fill="#252F3C" d="M3384.1,375.9l-9.1-23.5h-1.2c-7.9,10-16.1,16.9-24.5,20.8c-8.4,3.9-19.3,5.8-32.8,5.8
		c-16.6,0-29.6-4.7-39.1-14.2c-9.5-9.5-14.3-22.9-14.3-40.4c0-18.3,6.4-31.8,19.2-40.5c12.8-8.7,32.1-13.5,57.9-14.4l29.9-0.9v-7.6
		c0-17.5-8.9-26.2-26.8-26.2c-13.8,0-30,4.2-48.6,12.5l-15.6-31.8c19.9-10.4,41.9-15.6,66-15.6c23.1,0,40.9,5,53.2,15.1
		c12.3,10.1,18.5,25.4,18.5,46v115H3384.1z M3370.2,296l-18.2,0.6c-13.7,0.4-23.9,2.9-30.6,7.4c-6.7,4.5-10,11.4-10,20.7
		c0,13.3,7.6,19.9,22.8,19.9c10.9,0,19.6-3.1,26.2-9.4c6.5-6.3,9.8-14.6,9.8-25V296z"/>
	<path fill="#252F3C" d="M3512.4,203.4v66.3h65.7v-66.3h47.1v172.5h-47.1v-71.1h-65.7v71.1h-47.1V203.4H3512.4z"/>
	<path fill="#252F3C" d="M3744.6,379c-53.7,0-80.5-29.5-80.5-88.4c0-29.3,7.3-51.7,21.9-67.2c14.6-15.5,35.5-23.2,62.8-23.2
		c20,0,37.9,3.9,53.7,11.7l-13.9,36.4c-7.4-3-14.3-5.4-20.7-7.3c-6.4-1.9-12.8-2.9-19.1-2.9c-24.5,0-36.7,17.4-36.7,52.2
		c0,33.7,12.2,50.6,36.7,50.6c9.1,0,17.4-1.2,25.2-3.6c7.7-2.4,15.4-6.2,23.1-11.3v40.3c-7.6,4.8-15.3,8.2-23.1,10
		C3766.3,378,3756.5,379,3744.6,379z"/>
	<path fill="#252F3C" d="M3915.1,379c-27.8,0-49.5-7.7-65.1-23c-15.6-15.3-23.5-37-23.5-65.1c0-28.9,7.2-51.3,21.7-67
		c14.5-15.8,34.4-23.7,59.9-23.7c24.4,0,43.4,6.9,56.9,20.8s20.4,33.1,20.4,57.6v22.8h-111.2c0.5,13.4,4.5,23.8,11.9,31.3
		c7.4,7.5,17.8,11.3,31.2,11.3c10.4,0,20.2-1.1,29.5-3.2s18.9-5.6,29-10.3v36.4c-8.2,4.1-17,7.2-26.4,9.2
		C3940,378,3928.6,379,3915.1,379z M3908.5,233.6c-10,0-17.8,3.2-23.5,9.5c-5.7,6.3-8.9,15.3-9.7,26.9h66
		c-0.2-11.6-3.2-20.6-9.1-26.9S3918.5,233.6,3908.5,233.6z"/>
	<path fill="#252F3C" d="M4118.5,379c-20.3,0-36.2-7.4-47.7-22.1h-2.5c1.6,14.4,2.5,22.7,2.5,25v69.9h-47.1V203.4h38.3l6.6,22.4h2.2
		c11-17.1,27.3-25.6,48.9-25.6c20.4,0,36.3,7.9,47.8,23.6c11.5,15.7,17.3,37.6,17.3,65.6c0,18.4-2.7,34.4-8.1,48s-13.1,23.9-23.1,31
		C4143.7,375.4,4132,379,4118.5,379z M4104.6,237.8c-11.6,0-20.1,3.6-25.5,10.7c-5.3,7.2-8.1,19-8.3,35.4v5.1
		c0,18.5,2.8,31.8,8.3,39.8c5.5,8,14.2,12,26.2,12c21.1,0,31.6-17.4,31.6-52.2c0-17-2.6-29.7-7.8-38.2
		C4123.9,242,4115.7,237.8,4104.6,237.8z"/>
	<path fill="#252F3C" d="M4199,203.4h51.5l32.6,97.1c2.8,8.4,4.7,18.4,5.7,29.9h0.9c1.1-10.6,3.3-20.6,6.6-29.9l31.9-97.1h50.5
		l-73,194.6c-6.7,18-16.2,31.5-28.6,40.4c-12.4,8.9-26.9,13.4-43.4,13.4c-8.1,0-16.1-0.9-23.9-2.6v-37.3c5.7,1.3,11.8,2,18.5,2
		c8.3,0,15.6-2.5,21.8-7.6c6.2-5.1,11.1-12.8,14.6-23.1l2.8-8.5L4199,203.4z"/>
</g>
</svg>
