<?xml version="1.0" encoding="utf-8"?>
<!-- Generator: Adobe Illustrator 27.5.0, SVG Export Plug-In . SVG Version: 6.00 Build 0)  -->
<svg version="1.2" baseProfile="tiny" id="Layer_1" xmlns="http://www.w3.org/2000/svg" xmlns:xlink="http://www.w3.org/1999/xlink"
	 x="0px" y="0px" viewBox="0 0 4133 512" overflow="visible" xml:space="preserve">
<g>
	<path fill="#F1F2F2" d="M199.2,341.2l-0.1,0.1L113.9,455C51.8,410.7,11.4,338,11.4,256S51.8,101.3,113.9,57l85.2,113.7l0.1,0.1
		c-27.5,18.3-45.6,49.7-45.6,85.2S171.7,322.9,199.2,341.2z"/>
	<path fill="#F1F2F2" d="M394.4,54.3c64.2,44.2,106.3,118,106.3,201.7s-42.1,157.6-106.3,201.7l-1.8-2.6L309,343.6
		c29.7-17.9,49.5-50.4,49.5-87.6s-19.8-69.7-49.5-87.6l83.6-111.5L394.4,54.3z"/>
</g>
<g>
	<path fill="#FF0000" d="M394.4,54.3l-1.8,2.6L309,168.4c-15.5-9.4-33.6-14.8-52.9-14.8c-20.9,0-40.5,6.4-56.8,17.2l-0.1-0.1
		L113.9,57c40-28.8,89.1-45.6,142.1-45.6C307.4,11.4,355,27.2,394.4,54.3z"/>
	<path fill="#FF0000" d="M392.5,455.1l1.8,2.6c-39.4,27.1-86.9,42.9-138.4,42.9c-53,0-102.1-16.8-142.1-45.6L199,341.3l0.1-0.1
		c16.3,10.8,35.8,17.2,56.8,17.2c19.3,0,37.4-5.3,52.9-14.8L392.5,455.1z"/>
</g>
<g>
	<path fill="#252F3C" d="M400.8,44.9C358.1,15.5,308,0,256,0c-53.8,0-105.3,16.5-148.7,47.7c-32.5,23.1-59.5,54-78,89.3
		C10.1,173.4,0,214.6,0,256s10.1,82.6,29.3,119c18.6,35.3,45.5,66.2,78,89.3C150.7,495.5,202.2,512,256,512
		c52,0,102.1-15.5,144.8-44.9C470.4,419.2,512,340.3,512,256S470.4,92.8,400.8,44.9z M378.1,57.2l-72.3,96.5
		c-15.4-7.5-32.4-11.5-49.7-11.5c-18.9,0-37.3,4.7-53.8,13.6l-72-96.1c37.5-24.2,80.7-36.9,125.9-36.9
		C299.4,22.8,341.4,34.6,378.1,57.2z M303,333.9c-14.1,8.6-30.3,13.1-47,13.1c-18,0-35.4-5.3-50.5-15.3
		C180.1,314.9,165,286.5,165,256s15.2-58.9,40.5-75.7c15.1-10,32.5-15.3,50.5-15.3c16.7,0,32.9,4.5,47,13.2
		c27.5,16.6,44,45.7,44,77.9S330.6,317.3,303,333.9z M22.8,256c0-71.5,33-139.1,88.9-183.1l71.6,95.6c-25.9,21.5-41,53.4-41,87.5
		s15.2,66,41,87.5l-71.6,95.6C55.8,395.1,22.8,327.5,22.8,256z M130.1,452.3l72-96.1c16.5,8.9,34.9,13.6,53.8,13.6
		c17.4,0,34.4-4,49.7-11.5l72.3,96.5c-36.6,22.6-78.6,34.5-122.1,34.5C210.9,489.2,167.6,476.5,130.1,452.3z M396.8,441.9
		l-71.7-95.6c28.1-21.4,44.6-54.3,44.6-90.3s-16.5-69-44.6-90.3l71.7-95.6c58.1,44.1,92.4,112.8,92.4,185.9S454.9,397.8,396.8,441.9
		z"/>
	<path fill="#252F3C" d="M110.2,178.4l-16.6-15.5C70,188.2,57,221.3,57,256c0,24,6.3,47.6,18.3,68.3L95,312.9
		C84.9,295.7,79.6,276,79.6,256C79.6,227,90.5,199.5,110.2,178.4z"/>
	<path fill="#252F3C" d="M418.5,162.9l-16.6,15.5c19.7,21.1,30.5,48.6,30.5,77.6c0,19.9-5.3,39.6-15.2,56.9l19.7,11.3
		c11.9-20.8,18.2-44.4,18.2-68.2C455.1,221.3,442.1,188.2,418.5,162.9z"/>
</g>
<g>
	<path fill="#252F3C" d="M632,150.3h63.7c29.9,0,51.6,4.5,65,13.4c13.4,8.9,20.1,23.1,20.1,42.4c0,13.4-3.7,24.4-11.2,33.1
		c-7.5,8.7-18.3,14.3-32.6,16.9v1.5c34.3,5.9,51.4,23.9,51.4,54c0,20.2-6.8,35.9-20.4,47.2c-13.6,11.3-32.7,17-57.2,17H632V150.3z
		 M658.2,246.9h43.2c18.5,0,31.8-2.9,40-8.7c8.1-5.8,12.2-15.6,12.2-29.4c0-12.7-4.5-21.8-13.6-27.4c-9.1-5.6-23.5-8.4-43.2-8.4
		h-38.6V246.9z M658.2,269.1v84.4h47.1c18.2,0,31.9-3.5,41.1-10.6c9.2-7,13.8-18.1,13.8-33.1c0-14-4.7-24.3-14.1-30.9
		c-9.4-6.6-23.7-9.9-43-9.9H658.2z"/>
	<path fill="#252F3C" d="M940.6,375.9H915V206.8h142v169.1H1031V229h-90.4V375.9z"/>
	<path fill="#252F3C" d="M1257.2,291.2c0,27.6-6.9,49.1-20.8,64.6c-13.9,15.5-33.1,23.2-57.6,23.2c-15.1,0-28.5-3.5-40.3-10.6
		s-20.8-17.3-27.2-30.6c-6.4-13.3-9.6-28.8-9.6-46.6c0-27.6,6.9-49,20.7-64.4c13.8-15.4,32.9-23.1,57.4-23.1
		c23.7,0,42.5,7.9,56.4,23.6C1250.3,243,1257.2,264.3,1257.2,291.2z M1128.4,291.2c0,21.6,4.3,38.1,13,49.4
		c8.6,11.3,21.3,17,38.1,17c16.8,0,29.5-5.6,38.2-16.9c8.7-11.3,13-27.7,13-49.5c0-21.5-4.3-37.8-13-49
		c-8.7-11.2-21.5-16.7-38.5-16.7c-16.8,0-29.4,5.5-38,16.5C1132.7,253,1128.4,269.4,1128.4,291.2z"/>
	<path fill="#252F3C" d="M1389.9,351.2l4.8-14.3l6.6-18.2l45.8-111.6h32.6v168.8H1457V236.3l-3.1,8.9l-8.9,23.6l-43.7,107.1h-21.4
		l-43.7-107.4c-5.5-13.8-9.2-24.5-11.3-32.2v139.6h-22.8V207.1h31.3l44.3,107.2C1382.2,325.6,1386.2,337.9,1389.9,351.2z"/>
	<path fill="#252F3C" d="M1680.3,291.2c0,27.6-6.9,49.1-20.8,64.6c-13.9,15.5-33.1,23.2-57.6,23.2c-15.1,0-28.5-3.5-40.3-10.6
		s-20.8-17.3-27.2-30.6c-6.4-13.3-9.6-28.8-9.6-46.6c0-27.6,6.9-49,20.7-64.4c13.8-15.4,32.9-23.1,57.4-23.1
		c23.7,0,42.5,7.9,56.4,23.6C1673.3,243,1680.3,264.3,1680.3,291.2z M1551.5,291.2c0,21.6,4.3,38.1,13,49.4
		c8.6,11.3,21.3,17,38.1,17c16.8,0,29.5-5.6,38.2-16.9c8.7-11.3,13-27.7,13-49.5c0-21.5-4.3-37.8-13-49
		c-8.7-11.2-21.5-16.7-38.5-16.7c-16.8,0-29.4,5.5-38,16.5C1555.7,253,1551.5,269.4,1551.5,291.2z"/>
	<path fill="#252F3C" d="M1851.3,353.8h75V207.1h25.6v146.7h24.2v80.2h-25.9v-58.2h-225V207.1h25.6v146.7h74.8V207.1h25.6V353.8z"/>
	<path fill="#252F3C" d="M2034.3,276.7h52.2c43.2,0,64.8,15.9,64.8,47.7c0,16.7-5.6,29.4-16.9,38.3c-11.3,8.8-27.7,13.3-49.5,13.3
		h-76.2V206.8h25.6V276.7z M2034.3,298.7v55.7h49.4c13.6,0,24-2.4,31.2-7.1c7.2-4.7,10.8-11.9,10.8-21.4c0-9.4-3.3-16.2-10-20.6
		c-6.6-4.4-17.6-6.6-32.8-6.6H2034.3z"/>
	<path fill="#252F3C" d="M2363.4,147.1h26.5v27.8h10.8c17.6,0,32.8,3.5,45.7,10.5c12.9,7,22.8,16.9,29.6,29.6
		c6.8,12.8,10.3,27.3,10.3,43.7c0,17.1-3.8,32.3-11.5,45.6c-7.7,13.3-18.2,23.3-31.5,30c-13.3,6.7-29,10-47.1,10h-6.3V379h-26.5
		v-34.7h-6.9c-18.1,0-33.8-3.4-47.1-10.2s-23.7-16.9-31.2-30.2c-7.5-13.4-11.3-28.3-11.3-44.9c0-16.3,3.5-30.8,10.4-43.5
		c6.9-12.8,16.9-22.7,29.9-29.9c13-7.1,28.2-10.7,45.8-10.7h10.3V147.1z M2363.4,197.4h-8.8c-18.7,0-33.5,5.5-44.2,16.4
		c-10.8,10.9-16.1,25.8-16.1,44.6c0,20.3,5.7,36,17.1,47.1c11.4,11.2,27.5,16.7,48.3,16.7h3.7V197.4z M2389.9,322.2h3.9
		c20.7,0,36.7-5.6,48.2-16.9c11.5-11.3,17.2-26.9,17.2-47c0-19-5.3-33.9-15.9-44.7c-10.6-10.8-25.4-16.2-44.4-16.2h-8.9V322.2z"/>
	<path fill="#252F3C" d="M2608.6,379c-11,0-21.1-2-30.2-6.1s-16.7-10.3-22.9-18.7h-1.9c1.2,9.9,1.9,19.2,1.9,28.1v69.6h-25.6v-245
		h20.8l3.5,23.1h1.2c6.6-9.3,14.2-15.9,23-20.1c8.7-4.1,18.8-6.2,30.1-6.2c22.4,0,39.7,7.7,51.9,23c12.2,15.3,18.3,36.8,18.3,64.5
		c0,27.8-6.2,49.4-18.6,64.7C2647.8,371.3,2630.6,379,2608.6,379z M2604.9,225.5c-17.3,0-29.8,4.8-37.5,14.3s-11.7,24.8-11.9,45.7
		v5.7c0,23.8,4,40.8,11.9,51c7.9,10.2,20.6,15.4,38.1,15.4c14.6,0,26-5.9,34.3-17.7c8.3-11.8,12.4-28.1,12.4-48.9
		c0-21.1-4.1-37.3-12.4-48.5C2631.5,231.1,2619.9,225.5,2604.9,225.5z"/>
	<path fill="#252F3C" d="M2747.6,206.8V314l-1.1,28.1l-0.5,8.8l91.5-144.1h31.9v169.1h-23.9V272.5l0.5-20.4l0.8-20.1l-91.3,143.8
		h-31.9V206.8H2747.6z"/>
	<path fill="#252F3C" d="M3049.8,375.9h-25.9V228.7h-50.8c-2.8,36.6-6.6,65.7-11.6,87.2c-4.9,21.5-11.3,37.2-19.2,47.2
		c-7.9,10-17.9,15-30,15c-5.6,0-10-0.6-13.3-1.9v-19c2.3,0.6,4.8,0.9,7.7,0.9c11.8,0,21.2-12.5,28.2-37.5c7-25,12.3-63,15.9-113.9
		h98.9V375.9z"/>
	<path fill="#252F3C" d="M3208.2,375.9l-5.1-24.1h-1.2c-8.4,10.6-16.8,17.8-25.2,21.5c-8.4,3.8-18.9,5.6-31.4,5.6
		c-16.8,0-29.9-4.3-39.4-13c-9.5-8.6-14.3-20.9-14.3-36.9c0-34.2,27.3-52,81.9-53.7l28.7-0.9V264c0-13.3-2.9-23.1-8.6-29.4
		s-14.8-9.5-27.4-9.5c-14.1,0-30,4.3-47.8,13l-7.9-19.6c8.3-4.5,17.5-8.1,27.4-10.6c9.9-2.6,19.9-3.9,29.9-3.9
		c20.2,0,35.1,4.5,44.8,13.4s14.6,23.3,14.6,43v115.4H3208.2z M3150.3,357.8c15.9,0,28.5-4.4,37.6-13.1c9.1-8.7,13.7-21,13.7-36.7
		v-15.3l-25.6,1.1c-20.4,0.7-35.1,3.9-44.1,9.5c-9,5.6-13.5,14.3-13.5,26.2c0,9.3,2.8,16.3,8.4,21.1
		C3132.4,355.4,3140.2,357.8,3150.3,357.8z"/>
	<path fill="#252F3C" d="M3305.5,206.8v70.8h94.7v-70.8h25.6v169.1h-25.6v-76.2h-94.7v76.2h-25.6V206.8H3305.5z"/>
	<path fill="#252F3C" d="M3547.8,379c-24.5,0-43.4-7.5-56.9-22.6c-13.4-15.1-20.1-36.4-20.1-64c0-28.3,6.8-50.1,20.4-65.6
		c13.6-15.4,33-23.1,58.2-23.1c8.1,0,16.3,0.9,24.4,2.6c8.1,1.8,14.5,3.8,19.1,6.2l-7.9,21.8c-5.7-2.3-11.8-4.1-18.5-5.6
		c-6.7-1.5-12.6-2.2-17.7-2.2c-34.4,0-51.5,21.9-51.5,65.7c0,20.8,4.2,36.7,12.6,47.8c8.4,11.1,20.8,16.7,37.3,16.7
		c14.1,0,28.5-3,43.4-9.1v22.7C3579.2,376,3564.9,379,3547.8,379z"/>
	<path fill="#252F3C" d="M3702.1,379c-25,0-44.7-7.6-59.2-22.8c-14.5-15.2-21.7-36.4-21.7-63.4c0-27.3,6.7-48.9,20.1-65
		s31.5-24.1,54.1-24.1c21.2,0,38,7,50.3,20.9c12.3,13.9,18.5,32.3,18.5,55.2V296h-116.5c0.5,19.9,5.5,34.9,15,45.2
		c9.5,10.3,22.9,15.4,40.2,15.4c18.2,0,36.2-3.8,54-11.4V368c-9.1,3.9-17.6,6.7-25.7,8.4C3723.2,378.1,3713.5,379,3702.1,379z
		 M3695.1,225.1c-13.6,0-24.4,4.4-32.5,13.3c-8.1,8.8-12.8,21.1-14.3,36.7h88.4c0-16.1-3.6-28.5-10.8-37.1
		C3718.8,229.4,3708.5,225.1,3695.1,225.1z"/>
	<path fill="#252F3C" d="M3886.6,379c-11,0-21.1-2-30.2-6.1s-16.7-10.3-22.9-18.7h-1.9c1.2,9.9,1.9,19.2,1.9,28.1v69.6h-25.6v-245
		h20.8l3.5,23.1h1.2c6.6-9.3,14.2-15.9,23-20.1c8.7-4.1,18.8-6.2,30.1-6.2c22.4,0,39.7,7.7,51.9,23c12.2,15.3,18.3,36.8,18.3,64.5
		c0,27.8-6.2,49.4-18.6,64.7C3925.8,371.3,3908.6,379,3886.6,379z M3882.9,225.5c-17.3,0-29.8,4.8-37.5,14.3s-11.7,24.8-11.9,45.7
		v5.7c0,23.8,4,40.8,11.9,51c7.9,10.2,20.6,15.4,38.1,15.4c14.6,0,26-5.9,34.3-17.7c8.3-11.8,12.4-28.1,12.4-48.9
		c0-21.1-4.1-37.3-12.4-48.5C3909.6,231.1,3897.9,225.5,3882.9,225.5z"/>
	<path fill="#252F3C" d="M3974.7,206.8h27.5l37,96.4c8.1,22,13.2,37.9,15.1,47.7h1.2c1.3-5.2,4.1-14.2,8.4-26.9
		c4.3-12.7,18.2-51.8,41.9-117.2h27.5l-72.7,192.6c-7.2,19-15.6,32.5-25.2,40.5c-9.6,8-21.4,12-35.4,12c-7.8,0-15.5-0.9-23.1-2.6
		v-20.5c5.7,1.2,12,1.9,19,1.9c17.6,0,30.1-9.9,37.6-29.6l9.4-24.1L3974.7,206.8z"/>
</g>
</svg>
